<svg xmlns="http://www.w3.org/2000/svg" xmlns:xlink="http://www.w3.org/1999/xlink" width="500" zoomAndPan="magnify" viewBox="0 0 375 374.999991" height="500" preserveAspectRatio="xMidYMid meet" version="1.0"><defs><clipPath id="35d4c5a9e1"><path d="M 37.5 151.878906 L 108.738281 151.878906 L 108.738281 223.121094 L 37.5 223.121094 Z M 37.5 151.878906 " clip-rule="nonzero"/></clipPath><clipPath id="969ce18611"><path d="M 73.121094 151.878906 C 53.449219 151.878906 37.5 167.828125 37.5 187.5 C 37.5 207.171875 53.449219 223.121094 73.121094 223.121094 C 92.792969 223.121094 108.738281 207.171875 108.738281 187.5 C 108.738281 167.828125 92.792969 151.878906 73.121094 151.878906 Z M 73.121094 151.878906 " clip-rule="nonzero"/></clipPath><clipPath id="0ea8d13797"><path d="M 9.359375 78.835938 L 364.109375 78.835938 L 364.109375 297 L 9.359375 297 Z M 9.359375 78.835938 " clip-rule="nonzero"/></clipPath></defs><g clip-path="url(#35d4c5a9e1)"><g clip-path="url(#969ce18611)"><path fill="#333932" d="M 37.5 151.878906 L 108.738281 151.878906 L 108.738281 223.121094 L 37.5 223.121094 Z M 37.5 151.878906 " fill-opacity="1" fill-rule="nonzero"/></g></g><g clip-path="url(#0ea8d13797)"><path fill="#ffffff" d="M 258.25 78.910156 L 104.496094 78.910156 C 151.730469 92.292969 186.25 135.019531 186.25 187.945312 C 186.25 240.871094 151.730469 283.597656 104.496094 296.976562 L 258.25 296.976562 C 318.347656 296.976562 364.179688 249.667969 364.179688 187.945312 C 364.179688 126.296875 318.421875 78.910156 258.25 78.910156 Z M 258.25 249.003906 L 214.636719 249.003906 L 214.636719 126.886719 L 258.25 126.886719 C 292.550781 126.886719 316.203125 150.542969 316.203125 187.945312 C 316.203125 225.273438 292.550781 249.003906 258.25 249.003906 Z M 72.855469 123.117188 C 108.339844 123.117188 136.429688 148.988281 136.429688 187.871094 C 136.429688 226.828125 108.414062 252.699219 72.855469 252.699219 C 37.375 252.699219 9.359375 226.828125 9.359375 187.871094 C 9.359375 148.988281 37.375 123.117188 72.855469 123.117188 Z M 72.855469 123.117188 " fill-opacity="1" fill-rule="nonzero"/></g></svg>